<svg width="430" height="415" viewBox="0 0 430 415" fill="none" xmlns="http://www.w3.org/2000/svg">
<path d="M122.59 277.737L141.213 262.279C173.148 302.085 260.399 308.225 290.661 258.414L309.75 276.449" stroke="black" stroke-width="2"/>
<path d="M333.516 203.657C333.516 268.615 280.771 321.278 215.702 321.278C150.632 321.278 97.8874 268.615 97.8874 203.657C97.8874 138.7 150.632 86.037 215.702 86.037C280.771 86.037 333.516 138.7 333.516 203.657Z" stroke="black" stroke-width="3"/>
<path d="M378.435 203.177C378.435 290.109 305.623 360.664 215.702 360.664C125.781 360.664 52.969 290.109 52.969 203.177C52.969 116.245 125.781 45.6898 215.702 45.6898C305.623 45.6898 378.435 116.245 378.435 203.177Z" stroke="black" stroke-width="3"/>
<path d="M428.5 207.5C428.5 321.209 330.545 413.5 214.766 413.5C98.9911 413.5 1.5 321.213 1.5 207.5C1.5 93.7868 98.9911 1.5 214.766 1.5C330.545 1.5 428.5 93.7909 428.5 207.5Z" stroke="black" stroke-width="3"/>
<path d="M304.135 175.799C304.135 174.27 303.248 172.804 301.668 171.723C300.089 170.642 297.946 170.035 295.713 170.035C293.479 170.035 291.337 170.642 289.757 171.723C288.178 172.804 287.291 174.27 287.291 175.799" stroke="black" stroke-width="2"/>
<path d="M142.242 175.799C142.242 174.27 141.354 172.804 139.775 171.723C138.195 170.642 136.053 170.035 133.819 170.035C131.586 170.035 129.443 170.642 127.864 171.723C126.285 172.804 125.397 174.27 125.397 175.799" stroke="black" stroke-width="2"/>
<path d="M287.291 174.838V244.005H303.199H142.242M126.801 244.005H142.242M142.242 244.005V194.051M142.242 175.318V194.051M142.242 194.051H125.397H303.667V185.885H125.397" stroke="black" stroke-width="2"/>
<path d="M125.397 175.318V198.374V244.005H129.14" stroke="black" stroke-width="2"/>
<path d="M304.135 174.838V244.005H300.392" stroke="black" stroke-width="2"/>
<path d="M272.318 185.405C272.318 174.45 264.512 165.293 254.07 157.546C243.628 149.8 231.405 144.097 216.638 144.097C201.87 144.097 189.648 149.8 179.206 157.546C168.764 165.293 159.086 174.45 159.086 185.405" stroke="black" stroke-width="2"/>
<path d="M258.281 185.405C258.281 174.959 252.152 166.228 243.954 158.842C235.755 151.456 226.159 146.019 214.565 146.019C202.971 146.019 195.358 151.456 187.16 158.842C178.962 166.228 171.364 174.959 171.364 185.405" stroke="black" stroke-width="2"/>
<path d="M238.629 185.405C238.629 174.959 235.264 166.228 230.762 158.842C226.26 151.456 220.991 146.019 214.625 146.019C208.259 146.019 204.079 151.456 199.577 158.842C195.075 166.228 190.903 174.959 190.903 185.405" stroke="black" stroke-width="2"/>
<path d="M162.829 201.256C162.829 200.364 161.942 199.509 160.362 198.878C158.783 198.248 156.641 197.894 154.407 197.894C152.173 197.894 150.031 198.248 148.452 198.878C146.872 199.509 145.985 200.364 145.985 201.256" stroke="black" stroke-width="2"/>
<path d="M145.985 201.256V244.005H162.829V201.256" stroke="black" stroke-width="2"/>
<path d="M183.417 201.256C183.417 200.364 182.529 199.509 180.95 198.878C179.37 198.248 177.228 197.894 174.995 197.894C172.761 197.894 170.619 198.248 169.039 198.878C167.46 199.509 166.572 200.364 166.572 201.256" stroke="black" stroke-width="2"/>
<path d="M166.572 201.256V244.005H183.417V201.256" stroke="black" stroke-width="2"/>
<path d="M203.069 201.256C203.069 200.364 202.181 199.509 200.602 198.878C199.022 198.248 196.88 197.894 194.646 197.894C192.413 197.894 190.27 198.248 188.691 198.878C187.111 199.509 186.224 200.364 186.224 201.256" stroke="black" stroke-width="2"/>
<path d="M186.224 201.256V244.005H203.069V201.256" stroke="black" stroke-width="2"/>
<path d="M222.72 201.256C222.72 200.364 221.833 199.509 220.254 198.878C218.674 198.248 216.532 197.894 214.298 197.894C212.064 197.894 209.922 198.248 208.343 198.878C206.763 199.509 205.876 200.364 205.876 201.256" stroke="black" stroke-width="2"/>
<path d="M205.876 201.256V244.005H222.72V201.256" stroke="black" stroke-width="2"/>
<path d="M242.372 201.256C242.372 200.364 241.485 199.509 239.905 198.878C238.326 198.248 236.184 197.894 233.95 197.894C231.716 197.894 229.574 198.248 227.995 198.878C226.415 199.509 225.528 200.364 225.528 201.256" stroke="black" stroke-width="2"/>
<path d="M225.528 201.256V244.005H242.372V201.256" stroke="black" stroke-width="2"/>
<path d="M262.96 201.256C262.96 200.364 262.072 199.509 260.493 198.878C258.913 198.248 256.771 197.894 254.538 197.894C252.304 197.894 250.162 198.248 248.582 198.878C247.003 199.509 246.115 200.364 246.115 201.256" stroke="black" stroke-width="2"/>
<path d="M246.115 201.256V244.005H262.96V201.256" stroke="black" stroke-width="2"/>
<path d="M283.547 201.256C283.547 200.364 282.66 199.509 281.081 198.878C279.501 198.248 277.359 197.894 275.125 197.894C272.891 197.894 270.749 198.248 269.17 198.878C267.59 199.509 266.703 200.364 266.703 201.256" stroke="black" stroke-width="2"/>
<path d="M266.703 201.256V244.005H283.547V201.256" stroke="black" stroke-width="2"/>
<path d="M159.086 182.523V139.294M159.086 133.05V139.294M159.086 139.294H176.398V159.468V133.05" stroke="black" stroke-width="2"/>
<path d="M220.849 123.782C203.661 127.021 210.809 133.801 217.786 135.457C211.023 138.762 204.19 133.752 204.004 129.133C204.251 118.658 218.509 122.431 220.849 123.782Z" stroke="black" stroke-width="2"/>
<path d="M221.785 125.776L223.303 128.226L223.498 128.54L223.865 128.577L226.883 128.883L224.831 130.383L224.427 130.678L224.544 131.164L225.11 133.517L222.074 132.248L221.785 132.127L221.495 132.248L218.459 133.517L219.025 131.164L219.142 130.678L218.738 130.383L216.686 128.883L219.704 128.577L220.071 128.54L220.266 128.226L221.785 125.776Z" stroke="black" stroke-width="1.5"/>
<path d="M213.362 136.463V145.058H216.17V135.451" stroke="black" stroke-width="2"/>
<path d="M159.086 136.892V132.089V131.609L159.086 127.766C158.15 126.806 156.653 127.382 158.15 123.924C159.647 120.465 165.013 117.359 167.508 116.238C171.563 118.16 175.93 121.522 177.334 124.404C178.281 126.348 177.802 124.404 177.802 126.806L176.398 127.766V135.451" stroke="black" stroke-width="2"/>
<path d="M176.398 132.569H159.554" stroke="black" stroke-width="2"/>
<path d="M90.7726 332.074L92.7927 336.861L93.0506 337.472H93.714H99.3965L95.0437 339.907L94.2625 340.344L94.6105 341.169L96.4195 345.455L91.2608 342.569L90.7726 342.296L90.2844 342.569L85.1257 345.455L86.9346 341.169L87.2826 340.344L86.5015 339.907L82.1487 337.472H87.8312H88.4945L88.7525 336.861L90.7726 332.074Z" stroke="black" stroke-width="2"/>
<path d="M74.4931 229.395C73.6618 229.633 73.0669 230.113 72.7084 230.835C72.3499 231.557 72.2648 232.464 72.4531 233.555C72.581 234.297 72.7938 234.904 73.0916 235.377C73.3824 235.851 73.7331 236.191 74.1436 236.397C74.5529 236.597 74.9882 236.655 75.4496 236.571C75.8364 236.515 76.158 236.373 76.4144 236.146C76.6696 235.912 76.8749 235.619 77.0303 235.265C77.1787 234.914 77.2942 234.517 77.3768 234.077C77.4524 233.637 77.5022 233.173 77.5262 232.685L77.6544 230.67C77.7024 229.695 77.8336 228.783 78.0479 227.936C78.2622 227.089 78.575 226.332 78.9863 225.665C79.3976 224.998 79.9221 224.444 80.5598 224.004C81.1963 223.556 81.9612 223.247 82.8547 223.077C84.17 222.844 85.3672 222.973 86.4464 223.462C87.5175 223.945 88.426 224.761 89.172 225.91C89.9098 227.052 90.4296 228.498 90.7313 230.248C91.0305 231.983 91.0256 233.542 90.7164 234.927C90.406 236.304 89.7922 237.448 88.8751 238.358C87.9497 239.263 86.7177 239.873 85.179 240.189L84.4205 235.792C85.132 235.612 85.6976 235.296 86.1171 234.844C86.5284 234.387 86.8033 233.828 86.9418 233.168C87.072 232.502 87.0696 231.777 86.9344 230.993C86.8017 230.224 86.5746 229.576 86.2532 229.05C85.9306 228.517 85.5429 228.129 85.0902 227.887C84.6375 227.645 84.1525 227.571 83.6352 227.665C83.153 227.753 82.7723 227.97 82.4932 228.317C82.213 228.657 82.0046 229.12 81.8681 229.708C81.7303 230.289 81.6347 230.988 81.5811 231.806L81.3976 234.253C81.2698 236.146 80.8281 237.702 80.0725 238.922C79.3169 240.142 78.1452 240.893 76.5573 241.175C75.2584 241.419 74.0629 241.28 72.9706 240.757C71.8772 240.227 70.9517 239.396 70.1941 238.264C69.4365 237.132 68.9225 235.783 68.6522 234.215C68.3771 232.62 68.4096 231.178 68.7496 229.889C69.0885 228.594 69.6863 227.525 70.5433 226.683C71.4002 225.842 72.4664 225.294 73.7419 225.04L74.4931 229.395Z" fill="black"/>
<path d="M89.1703 220.345L67.3706 221.222L66.798 206.531L70.5981 206.378L70.991 216.459L76.1854 216.25L75.822 206.925L79.6221 206.772L79.9855 216.097L85.1906 215.888L84.7961 205.764L88.5961 205.611L89.1703 220.345Z" fill="black"/>
<path d="M88.8557 202.997L67.1598 200.78L67.6034 196.186L77.1695 197.164L77.1972 196.878L68.386 188.081L68.9177 182.576L77.8536 191.631L90.6229 184.698L90.0923 190.193L80.5976 195.233L83.1338 197.774L89.2993 198.404L88.8557 202.997Z" fill="black"/>
<path d="M85.3003 162.098C87.5988 162.705 89.4448 163.66 90.8383 164.962C92.2336 166.256 93.1688 167.768 93.644 169.496C94.1141 171.215 94.1157 173.01 93.6488 174.878C93.1784 176.761 92.331 178.338 91.1063 179.609C89.8817 180.881 88.3547 181.738 86.5252 182.181C84.6958 182.624 82.6353 182.542 80.3437 181.937C78.0452 181.329 76.1983 180.378 74.8031 179.083C73.4078 177.788 72.4751 176.281 72.0051 174.562C71.5282 172.841 71.5249 171.039 71.9952 169.156C72.4621 167.288 73.3079 165.717 74.5325 164.446C75.752 163.166 77.2765 162.304 79.1059 161.861C80.937 161.412 83.0019 161.49 85.3003 162.098ZM84.1658 166.639C82.677 166.245 81.3654 166.137 80.2311 166.316C79.0985 166.487 78.1673 166.906 77.4374 167.573C76.7076 168.24 76.2074 169.115 75.9369 170.198C75.6664 171.28 75.6945 172.295 76.0213 173.241C76.348 174.188 76.9665 175.02 77.8768 175.739C78.7889 176.45 79.9893 177.002 81.4782 177.396C82.967 177.789 84.2777 177.9 85.4103 177.729C86.5446 177.551 87.4767 177.129 88.2065 176.461C88.9364 175.794 89.4366 174.919 89.7071 173.837C89.9776 172.754 89.9495 171.74 89.6227 170.793C89.296 169.847 88.6766 169.018 87.7646 168.306C86.8543 167.588 85.6547 167.032 84.1658 166.639Z" fill="black"/>
<path d="M96.6109 163.96L76.5855 155.359L78.3233 151.081L94.858 158.183L98.3818 149.508L101.873 151.007L96.6109 163.96Z" fill="black"/>
<path d="M104.897 145.493L102.417 149.776L87.6122 131.872L90.5949 126.721L112.953 131.582L110.473 135.865L93.3931 131.823L93.3076 131.971L104.897 145.493ZM97.4375 141.288L103.296 131.171L106.363 133.049L100.505 143.166L97.4375 141.288Z" fill="black"/>
<path d="M113.438 131.45L96.8579 117.315L99.7578 113.719L106.599 119.551L112.485 112.252L105.644 106.42L108.538 102.833L125.118 116.968L122.225 120.556L115.376 114.716L109.489 122.015L116.338 127.855L113.438 131.45Z" fill="black"/>
<path d="M119.577 92.4154L124.09 88.9401L137.478 97.103L137.681 96.9468L133.827 81.4429L138.34 77.9676L151.171 95.5801L147.622 98.3135L139.27 86.8499L139.126 86.9605L142.936 101.787L140.519 103.649L127.719 95.6773L127.575 95.7879L135.958 107.295L132.408 110.028L119.577 92.4154Z" fill="black"/>
<path d="M151.677 96.0252L141.737 76.6277L154.679 69.6195L156.411 73.0008L147.53 77.81L149.899 82.4321L158.114 77.9834L159.846 81.3647L151.631 85.8134L154.005 90.4449L162.923 85.6153L164.656 88.9966L151.677 96.0252Z" fill="black"/>
<path d="M176.82 61.3027L183.928 81.9137L180.182 83.2789L166.783 73.5588L166.633 73.6136L171.106 86.5861L166.769 88.1666L159.661 67.5556L163.467 66.1685L176.793 75.9041L176.973 75.8384L172.503 62.876L176.82 61.3027Z" fill="black"/>
<path d="M185.737 81.8179L181.589 60.4061L195.998 57.4579L196.721 61.1903L186.833 63.2134L187.822 68.3155L196.968 66.444L197.691 70.1765L188.545 72.0479L189.535 77.1604L199.465 75.1287L200.188 78.8612L185.737 81.8179Z" fill="black"/>
<path d="M219.507 55.9836L220.619 77.7734L216.641 77.9875L206.462 64.783L206.303 64.7916L207.003 78.506L202.397 78.7538L201.284 56.964L205.327 56.7465L215.43 69.9444L215.622 69.9341L214.922 56.2303L219.507 55.9836Z" fill="black"/>
<path d="M238.098 65.0293C238.002 64.4974 237.839 64.0193 237.611 63.5949C237.383 63.1634 237.089 62.7892 236.728 62.4723C236.375 62.149 235.959 61.8868 235.48 61.6859C235.008 61.4857 234.475 61.3541 233.882 61.2911C232.774 61.1733 231.772 61.3455 230.877 61.8077C229.988 62.2707 229.258 63.0041 228.687 64.0079C228.116 65.0048 227.754 66.2596 227.602 67.7725C227.451 69.2854 227.551 70.5965 227.903 71.7057C228.256 72.8149 228.824 73.6934 229.608 74.3411C230.393 74.9818 231.357 75.3629 232.501 75.4844C233.538 75.5946 234.443 75.5049 235.214 75.2153C235.993 74.9194 236.61 74.4527 237.067 73.8152C237.53 73.1786 237.808 72.3971 237.901 71.471L238.819 71.7079L233.228 71.1139L233.575 67.6568L242.65 68.6209L242.376 71.3569C242.184 73.2657 241.617 74.8631 240.675 76.1491C239.733 77.4281 238.519 78.3637 237.032 78.956C235.547 79.5413 233.893 79.7371 232.072 79.5436C230.039 79.3276 228.298 78.689 226.849 77.6276C225.401 76.5592 224.329 75.1486 223.635 73.3957C222.948 71.6365 222.72 69.6116 222.95 67.3211C223.126 65.5607 223.538 64.0183 224.184 62.6937C224.839 61.3628 225.677 60.2657 226.698 59.4025C227.719 58.5393 228.869 57.9219 230.148 57.5505C231.427 57.179 232.783 57.0694 234.216 57.2217C235.444 57.3522 236.57 57.6539 237.592 58.127C238.616 58.593 239.504 59.1947 240.258 59.9321C241.019 60.6702 241.615 61.516 242.047 62.4693C242.48 63.4156 242.717 64.4339 242.758 65.5243L238.098 65.0293Z" fill="black"/>
<path d="M245.547 81.8245L240.781 80.5302L253.473 61.353L259.205 62.9094L261.028 86.028L256.262 84.7338L255.181 66.9865L255.016 66.9418L245.547 81.8245ZM247.384 73.4305L258.642 76.4876L257.746 79.9781L246.487 76.9209L247.384 73.4305Z" fill="black"/>
<path d="M260.944 86.601L269.514 66.5109L273.715 68.4055L270.178 76.6946L278.705 80.5406L282.241 72.2515L286.432 74.1417L277.861 94.2318L273.671 92.3416L277.211 84.0427L268.684 80.1966L265.144 88.4956L260.944 86.601Z" fill="black"/>
<path d="M286.094 99.9818L298.724 82.1559L302.411 84.9177L296.842 92.7774L297.072 92.9497L308.917 89.7907L313.336 93.1011L301.209 96.2352L300.782 110.984L296.371 107.68L296.787 96.7734L293.37 97.6778L289.781 102.744L286.094 99.9818Z" fill="black"/>
<path d="M300.627 111.622L315.589 95.7012L326.005 106.048L323.397 108.824L316.249 101.723L312.684 105.517L319.296 112.085L316.688 114.86L310.076 108.292L306.503 112.093L313.681 119.224L311.073 121.999L300.627 111.622Z" fill="black"/>
<path d="M334.702 117.198L337.489 120.799L325.7 130.446C324.611 131.338 323.471 131.863 322.281 132.021C321.095 132.185 319.944 132.005 318.828 131.48C317.711 130.955 316.701 130.109 315.798 128.943C314.995 127.905 314.444 126.817 314.146 125.677C313.858 124.538 313.892 123.421 314.247 122.323C314.608 121.222 315.352 120.215 316.479 119.301L319.286 122.927C318.849 123.303 318.538 123.709 318.354 124.144C318.179 124.58 318.126 125.022 318.194 125.471C318.272 125.92 318.476 126.357 318.806 126.784C319.153 127.232 319.54 127.534 319.966 127.69C320.402 127.846 320.867 127.855 321.362 127.716C321.856 127.577 322.373 127.286 322.913 126.845L334.702 117.198Z" fill="black"/>
<path d="M347.539 137.704L349.835 141.699L337.711 149.063C336.35 149.89 334.97 150.284 333.57 150.246C332.175 150.214 330.854 149.784 329.607 148.956C328.367 148.125 327.298 146.928 326.4 145.366C325.498 143.797 324.993 142.254 324.883 140.736C324.779 139.214 325.05 137.817 325.696 136.545C326.342 135.273 327.346 134.223 328.707 133.396L340.831 126.032L343.127 130.027L331.341 137.187C330.63 137.618 330.088 138.159 329.715 138.809C329.346 139.465 329.169 140.177 329.186 140.948C329.202 141.718 329.431 142.487 329.873 143.256C330.318 144.031 330.863 144.609 331.508 144.989C332.156 145.375 332.847 145.557 333.581 145.535C334.317 145.519 335.041 145.295 335.752 144.863L347.539 137.704Z" fill="black"/>
<path d="M331.371 154.565L351.49 146.076L354.68 154.063C355.29 155.592 355.54 157.012 355.428 158.322C355.325 159.636 354.892 160.785 354.129 161.769C353.376 162.757 352.334 163.532 351.005 164.093C349.669 164.656 348.404 164.851 347.209 164.678C346.021 164.501 344.952 163.97 344.002 163.085C343.054 162.207 342.27 160.99 341.649 159.435L339.514 154.087L342.932 152.644L344.791 157.3C345.118 158.117 345.5 158.749 345.939 159.196C346.377 159.642 346.872 159.903 347.422 159.979C347.976 160.061 348.583 159.963 349.244 159.684C349.912 159.402 350.422 159.029 350.772 158.565C351.125 158.108 351.311 157.557 351.328 156.91C351.355 156.267 351.203 155.534 350.874 154.71L349.722 151.824L333.08 158.846L331.371 154.565ZM344.893 161.635L337.746 170.53L335.859 165.805L343.049 157.019L344.893 161.635Z" fill="black"/>
<path d="M361.96 179.09L363.051 183.57L349.322 187.103C347.781 187.5 346.342 187.478 345.006 187.037C343.672 186.604 342.521 185.811 341.553 184.661C340.592 183.508 339.898 182.056 339.471 180.304C339.043 178.545 338.988 176.925 339.307 175.443C339.633 173.959 340.286 172.703 341.264 171.674C342.242 170.646 343.501 169.933 345.043 169.536L358.772 166.003L359.863 170.483L346.516 173.917C345.711 174.125 345.038 174.485 344.498 174.998C343.959 175.517 343.589 176.148 343.389 176.888C343.189 177.628 343.194 178.43 343.404 179.292C343.616 180.161 343.979 180.87 344.493 181.419C345.009 181.976 345.623 182.349 346.335 182.54C347.048 182.737 347.808 182.732 348.613 182.525L361.96 179.09Z" fill="black"/>
<path d="M342.143 194.251L341.697 189.328L364.098 194.751L364.635 200.67L343.592 210.238L343.146 205.316L359.41 198.27L359.395 198.1L342.143 194.251ZM350.653 193.126L351.707 204.753L348.122 205.096L347.068 193.469L350.653 193.126Z" fill="black"/>
<path d="M363.843 230.37L342.077 228.971L342.318 224.992L356.593 216.396L356.603 216.236L342.903 215.355L343.183 210.749L364.949 212.149L364.704 216.191L350.444 224.714L350.432 224.905L364.121 225.786L363.843 230.37Z" fill="black"/>
<path d="M150.557 300.424L146.348 297.833L165.363 283.97L170.425 287.087L164.229 308.841L160.019 306.249L165.087 289.643L164.942 289.554L150.557 300.424ZM155.247 293.261L165.19 299.382L163.111 302.322L153.168 296.201L155.247 293.261Z" fill="black"/>
<path d="M176.123 290.314L181.505 292.16L181.814 307.747L182.056 307.83L193.114 296.14L198.495 297.986L190.496 318.284L186.263 316.833L191.47 303.621L191.299 303.562L180.79 314.844L177.908 313.855L177.754 298.862L177.583 298.803L172.356 312.064L168.124 310.613L176.123 290.314Z" fill="black"/>
<path d="M198.975 319.161L194.064 318.603L204.373 297.818L210.279 298.489L214.927 320.973L210.016 320.415L206.765 303.107L206.596 303.088L198.975 319.161ZM199.779 310.622L211.38 311.94L210.914 315.511L199.312 314.192L199.779 310.622Z" fill="black"/>
<path d="M219.32 320.416L217.638 298.663L222.241 298.354L223.629 316.315L232.962 315.687L233.255 319.479L219.32 320.416Z" fill="black"/>
<path d="M238.408 296.015L243.317 317.274L238.794 318.182L233.886 296.923L238.408 296.015Z" fill="black"/>
<path d="M254.7 313.918L250.053 315.606L248.731 292.9L254.318 290.871L269.791 308.439L265.144 310.126L253.525 296.457L253.364 296.516L254.7 313.918ZM251.107 306.109L262.082 302.124L263.468 305.448L252.493 309.433L251.107 306.109Z" fill="black"/>
<path d="M273.226 305.743L260.625 287.932L264.553 285.513L269.752 292.862L277.727 287.953L272.527 280.604L276.447 278.192L289.048 296.003L285.129 298.416L279.923 291.058L271.949 295.967L277.154 303.325L273.226 305.743Z" fill="black"/>
<path d="M129.107 306.51L126.085 302.955C126.479 302.487 126.766 301.997 126.945 301.484C127.129 300.966 127.212 300.439 127.194 299.902C127.176 299.366 127.058 298.833 126.841 298.303C126.628 297.779 126.319 297.278 125.915 296.802C125.183 295.942 124.337 295.379 123.377 295.115C122.421 294.846 121.397 294.891 120.305 295.25C119.217 295.605 118.11 296.287 116.984 297.296C115.825 298.334 115.001 299.382 114.512 300.439C114.027 301.503 113.855 302.534 113.996 303.532C114.137 304.531 114.564 305.45 115.277 306.289C115.677 306.759 116.108 307.14 116.57 307.432C117.037 307.729 117.52 307.93 118.019 308.035C118.524 308.136 119.033 308.137 119.547 308.04C120.065 307.947 120.575 307.748 121.078 307.44L124.084 311.01C123.26 311.586 122.345 312 121.339 312.253C120.343 312.507 119.311 312.569 118.241 312.44C117.182 312.312 116.132 311.965 115.093 311.4C114.063 310.836 113.095 310.02 112.189 308.954C110.929 307.471 110.13 305.852 109.792 304.095C109.459 302.344 109.627 300.574 110.295 298.784C110.968 296.999 112.188 295.315 113.955 293.733C115.727 292.145 117.524 291.135 119.347 290.704C121.17 290.272 122.903 290.349 124.548 290.935C126.197 291.516 127.643 292.537 128.885 293.998C129.704 294.962 130.33 295.973 130.765 297.033C131.204 298.097 131.441 299.177 131.476 300.27C131.517 301.359 131.342 302.43 130.952 303.485C130.567 304.545 129.952 305.553 129.107 306.51Z" fill="black"/>
<path d="M142.119 307.477L128.202 324.281L124.727 321.247L138.644 304.444L142.119 307.477Z" fill="black"/>
<path d="M138.649 332.247L134.481 329.589L152.128 314.973L157.14 318.169L152.185 340.88L148.017 338.222L152.124 320.883L151.981 320.791L138.649 332.247ZM142.828 324.744L152.673 331.022L150.809 334.103L140.964 327.825L142.828 324.744Z" fill="black"/>
<path d="M163.765 346.003L164.686 323.233L169.447 324.884L168.121 340.467L168.292 340.527L176.795 327.432L180.871 328.845L179.877 344.578L180.059 344.641L188.219 331.393L192.98 333.044L180.262 351.724L176.015 350.251L176.548 335.34L176.387 335.284L168.013 347.476L163.765 346.003Z" fill="black"/>
<path d="M200.878 333.284L197.802 354.885L193.24 354.2L196.316 332.6L200.878 333.284Z" fill="black"/>
<path d="M218.533 356.181L216.879 334.425L225.587 333.727C227.187 333.599 228.539 333.73 229.644 334.118C230.75 334.507 231.603 335.101 232.205 335.901C232.807 336.694 233.149 337.635 233.232 338.726C233.297 339.576 233.184 340.336 232.893 341.008C232.601 341.673 232.174 342.234 231.61 342.692C231.054 343.143 230.403 343.484 229.658 343.715L229.674 343.927C230.505 343.896 231.298 344.068 232.053 344.442C232.815 344.815 233.453 345.374 233.965 346.116C234.477 346.852 234.773 347.754 234.855 348.824C234.942 349.978 234.734 351.031 234.229 351.984C233.731 352.929 232.947 353.708 231.875 354.321C230.803 354.934 229.453 355.306 227.825 355.436L218.533 356.181ZM222.845 352.052L226.594 351.751C227.875 351.649 228.791 351.329 229.342 350.794C229.892 350.251 230.135 349.569 230.073 348.747C230.027 348.145 229.842 347.626 229.516 347.189C229.191 346.752 228.75 346.424 228.192 346.205C227.641 345.985 226.997 345.905 226.261 345.964L222.406 346.273L222.845 352.052ZM222.169 343.16L225.578 342.887C226.208 342.837 226.759 342.682 227.231 342.424C227.709 342.157 228.074 341.807 228.326 341.374C228.585 340.94 228.693 340.436 228.649 339.862C228.59 339.076 228.262 338.465 227.666 338.028C227.077 337.591 226.273 337.413 225.254 337.495L221.76 337.775L222.169 343.16Z" fill="black"/>
<path d="M259.173 337.553C259.79 339.851 259.882 341.929 259.447 343.786C259.019 345.642 258.174 347.206 256.913 348.478C255.657 349.741 254.103 350.635 252.251 351.16C250.385 351.688 248.596 351.737 246.885 351.306C245.174 350.875 243.671 349.976 242.377 348.608C241.083 347.24 240.128 345.41 239.513 343.119C238.895 340.821 238.801 338.745 239.229 336.889C239.657 335.033 240.499 333.474 241.755 332.21C243.009 330.94 244.569 330.041 246.435 329.512C248.287 328.988 250.069 328.941 251.78 329.372C253.496 329.794 255.002 330.689 256.296 332.057C257.597 333.423 258.556 335.255 259.173 337.553ZM254.673 338.827C254.273 337.339 253.714 336.146 252.995 335.25C252.283 334.352 251.457 333.752 250.515 333.45C249.574 333.148 248.567 333.149 247.494 333.453C246.421 333.757 245.555 334.286 244.898 335.04C244.24 335.795 243.827 336.746 243.657 337.894C243.494 339.04 243.613 340.357 244.013 341.845C244.412 343.334 244.968 344.527 245.68 345.425C246.399 346.321 247.229 346.92 248.17 347.222C249.112 347.524 250.119 347.523 251.192 347.219C252.265 346.915 253.13 346.386 253.788 345.632C254.445 344.877 254.856 343.927 255.018 342.781C255.188 341.634 255.073 340.315 254.673 338.827Z" fill="black"/>
<path d="M275.819 325.06C275.456 324.664 275.067 324.351 274.651 324.12C274.232 323.882 273.788 323.73 273.318 323.662C272.852 323.586 272.366 323.595 271.859 323.692C271.358 323.786 270.844 323.97 270.315 324.247C269.327 324.763 268.581 325.465 268.078 326.353C267.582 327.238 267.361 328.262 267.416 329.428C267.467 330.586 267.831 331.847 268.506 333.208C269.181 334.57 269.96 335.621 270.843 336.362C271.725 337.102 272.665 337.528 273.664 337.639C274.659 337.744 275.666 337.53 276.686 336.997C277.611 336.513 278.319 335.935 278.81 335.262C279.303 334.579 279.572 333.842 279.615 333.05C279.665 332.255 279.483 331.441 279.069 330.608L279.962 330.297L274.977 332.903L273.434 329.792L281.525 325.563L282.746 328.025C283.598 329.743 283.972 331.407 283.866 333.016C283.758 334.619 283.24 336.084 282.312 337.41C281.381 338.729 280.104 339.813 278.48 340.662C276.667 341.61 274.874 342.038 273.102 341.947C271.325 341.85 269.683 341.254 268.173 340.16C266.667 339.057 265.402 337.474 264.38 335.413C263.594 333.828 263.12 332.297 262.958 330.82C262.799 329.333 262.917 327.941 263.313 326.645C263.708 325.348 264.341 324.188 265.213 323.164C266.084 322.14 267.158 321.294 268.436 320.626C269.531 320.053 270.631 319.683 271.736 319.514C272.838 319.338 273.9 319.353 274.92 319.556C275.947 319.757 276.893 320.139 277.76 320.704C278.623 321.262 279.361 321.991 279.973 322.889L275.819 325.06Z" fill="black"/>
<path d="M302.273 310.304C303.731 312.183 304.623 314.068 304.949 315.958C305.279 317.843 305.115 319.623 304.457 321.299C303.799 322.965 302.726 324.407 301.236 325.626C299.735 326.853 298.118 327.607 296.385 327.887C294.652 328.167 292.928 327.931 291.212 327.179C289.496 326.427 287.91 325.114 286.456 323.24C284.997 321.361 284.102 319.478 283.772 317.593C283.441 315.708 283.605 313.933 284.262 312.267C284.915 310.595 285.992 309.146 287.493 307.918C288.983 306.7 290.594 305.951 292.327 305.671C294.061 305.38 295.786 305.611 297.502 306.363C299.224 307.111 300.814 308.424 302.273 310.304ZM298.653 313.265C297.708 312.047 296.732 311.167 295.726 310.623C294.725 310.075 293.736 309.848 292.757 309.942C291.778 310.036 290.858 310.436 289.995 311.142C289.131 311.848 288.546 312.68 288.238 313.638C287.93 314.596 287.922 315.639 288.213 316.767C288.51 317.891 289.131 319.062 290.076 320.279C291.021 321.497 291.994 322.38 292.995 322.928C294.001 323.472 294.993 323.696 295.972 323.602C296.95 323.508 297.871 323.108 298.734 322.402C299.597 321.696 300.183 320.864 300.491 319.906C300.799 318.948 300.804 317.907 300.507 316.784C300.216 315.655 299.597 314.482 298.653 313.265Z" fill="black"/>
<path d="M314.82 312.902L298.415 298.519L303.92 291.902C304.974 290.635 306.095 289.748 307.283 289.241C308.47 288.724 309.663 288.585 310.86 288.822C312.056 289.05 313.196 289.638 314.28 290.589C315.37 291.544 316.107 292.606 316.492 293.775C316.872 294.939 316.891 296.159 316.549 297.436C316.212 298.708 315.507 299.988 314.435 301.276L310.749 305.707L307.961 303.263L311.17 299.406C311.734 298.729 312.111 298.087 312.302 297.48C312.493 296.873 312.497 296.301 312.316 295.764C312.139 295.222 311.781 294.714 311.241 294.241C310.697 293.764 310.144 293.473 309.584 293.369C309.029 293.26 308.466 293.348 307.897 293.632C307.327 293.907 306.758 294.385 306.19 295.068L304.201 297.459L317.771 309.356L314.82 312.902ZM314.89 297.299L325.824 299.676L322.567 303.591L311.708 301.124L314.89 297.299Z" fill="black"/>
<path d="M342.035 260.096L344.366 265.798L344.62 266.419H345.291H352.098L346.804 269.476L346.048 269.913L346.378 270.721L348.528 275.98L342.535 272.519L342.035 272.23L341.535 272.519L335.541 275.98L337.691 270.721L338.022 269.913L337.266 269.476L331.972 266.419H338.778H339.45L339.704 265.798L342.035 260.096Z" stroke="black" stroke-width="2"/>
<path d="M94.9837 268.742L97.3146 274.443L97.5687 275.065H98.2402H105.047L99.7529 278.122L98.997 278.558L99.3273 279.366L101.477 284.625L95.4837 281.165L94.9837 280.876L94.4836 281.165L88.4901 284.625L90.6401 279.366L90.9704 278.558L90.2145 278.122L84.9204 275.065H91.7271H92.3986L92.6528 274.443L94.9837 268.742Z" stroke="black" stroke-width="2"/>
</svg>
